<?xml version="1.0" encoding="utf-8"?>
<!-- Generator: Adobe Illustrator 27.9.0, SVG Export Plug-In . SVG Version: 6.00 Build 0)  -->
<svg version="1.1" id="Layer_1" xmlns="http://www.w3.org/2000/svg" xmlns:xlink="http://www.w3.org/1999/xlink" x="0px" y="0px"
	 viewBox="0 0 94.72 95.17" style="enable-background:new 0 0 94.72 95.17;" xml:space="preserve">
<style type="text/css">
	.st0{fill:#FF5722;}
	.st1{fill:#FFFFFF;}
	.st2{fill:none;}
</style>
<g>
	<g id="XMLID_00000090295650141264110620000003232061245125660840_">
		<g>
			<path class="st0" d="M29.42,89.48v-5.92h5.73v-6.25H0C0,51.57,0,25.82,0,0.2c1.76,0,61.76,0,90.28,0h4.44v77.11H59.05L59,83.56
				h5.4l0.01,5.9v0.02c0.02,0,0.03,0,0.05,0h6.49v5.69H23.29v-5.7C26.89,89.48,27.52,89.48,29.42,89.48z M82.82,65.27V11.71h-71.5
				v53.56H82.82z"/>
			<rect x="29.78" y="18.11" class="st0" width="10.83" height="0.06"/>
			<rect x="29.78" y="58.81" class="st0" width="10.83" height="0.06"/>
			<rect x="53.55" y="18.11" class="st0" width="10.96" height="40.68"/>
			<rect x="53.55" y="58.79" class="st0" width="10.96" height="0.08"/>
			<rect x="29.78" y="18.17" class="st0" width="10.83" height="40.64"/>
			<path class="st1" d="M82.82,11.71v53.56h-71.5V11.71H82.82z M64.51,58.79V18.11H53.55v40.68v0.08h10.96V58.79z M40.61,58.87
				v-0.06V18.17v-0.06H29.78v0.06v40.64v0.06H40.61z"/>
		</g>
		<g>
		</g>
	</g>
</g>
<path class="st2" d="M1.79,0.03"/>
<path class="st0" d="M90.31,0"/>
<path class="st2" d="M34.91,83.5"/>
</svg>
